<svg aria-hidden="true" style="position: absolute; width: 0; height: 0; overflow: hidden;" version="1.1" xmlns="http://www.w3.org/2000/svg" xmlns:xlink="http://www.w3.org/1999/xlink">
    <defs>
        <symbol id="icon-diamonds" viewBox="0 0 32 32">
            <path d="M16 0l-10 16 10 16 10-16z"></path>
        </symbol>
        <symbol id="icon-drive" viewBox="0 0 32 32">
            <path d="M6 28h20c3.314 0 6-2.686 6-6h-32c0 3.314 2.686 6 6 6zM26 24h2v2h-2v-2zM30 4h-28l-2 16h32z"></path>
        </symbol>
        <symbol id="icon-database" viewBox="0 0 32 32">
            <path d="M16 0c-8.837 0-16 2.239-16 5v4c0 2.761 7.163 5 16 5s16-2.239 16-5v-4c0-2.761-7.163-5-16-5z"></path>
            <path d="M16 17c-8.837 0-16-2.239-16-5v6c0 2.761 7.163 5 16 5s16-2.239 16-5v-6c0 2.761-7.163 5-16 5z"></path>
            <path d="M16 26c-8.837 0-16-2.239-16-5v6c0 2.761 7.163 5 16 5s16-2.239 16-5v-6c0 2.761-7.163 5-16 5z"></path>
        </symbol>
        <symbol id="nodes" viewBox="0 0 32 32">
            <path d="M10.5,34.29,2,29.39V19.58l8.5-4.9,8.5,4.9v9.81ZM4,28.23,10.5,32,17,28.23V20.74L10.5,17,4,20.74Z" class="clr-i-outline clr-i-outline-path-1"></path>
            <path d="M25.5,34.29,17,29.39V19.58l8.5-4.9,8.5,4.9v9.81ZM19,28.23,25.5,32,32,28.23V20.74L25.5,17,19,20.74Z" class="clr-i-outline clr-i-outline-path-2"></path>
            <path d="M18,21.32l-8.5-4.9V6.61L18,1.71l8.5,4.9v9.81Zm-6.5-6.06L18,19l6.5-3.75V7.77L18,4,11.5,7.77Z" class="clr-i-outline clr-i-outline-path-3"></path>

        </symbol>
        <symbol id="nodes-circular" viewBox="0 0 24 24">
            <path stroke-width="2" d="M14,4 C14,5.1048 13.1048,6 12,6 C10.8952,6 10,5.1048 10,4 C10,2.8952 10.8952,2 12,2 C13.1048,2 14,2.8952 14,4 Z M14,20 C14,21.1048 13.1048,22 12,22 C10.8952,22 10,21.1048 10,20 C10,18.8952 10.8952,18 12,18 C13.1048,18 14,18.8952 14,20 Z M7,8 C7,9.1048 6.1048,10 5,10 C3.8952,10 3,9.1048 3,8 C3,6.8952 3.8952,6 5,6 C6.1048,6 7,6.8952 7,8 Z M7,16 C7,17.1048 6.1048,18 5,18 C3.8952,18 3,17.1048 3,16 C3,14.8952 3.8952,14 5,14 C6.1048,14 7,14.8952 7,16 Z M21,8 C21,9.1048 20.1048,10 19,10 C17.8952,10 17,9.1048 17,8 C17,6.8952 17.8952,6 19,6 C20.1048,6 21,6.8952 21,8 Z M21,16 C21,17.1048 20.1048,18 19,18 C17.8952,18 17,17.1048 17,16 C17,14.8952 17.8952,14 19,14 C20.1048,14 21,14.8952 21,16 Z" />
        </symbol>
        <symbol id="ether-icon" viewBox="0 0 24 24">
            <path opacity="0.6" d="M11.999 3.75v6.098l5.248 2.303-5.248-8.401z"></path>
            <path d="M11.999 3.75L6.75 12.151l5.249-2.303V3.75z"></path>
            <path opacity="0.6" d="M11.999 16.103v4.143l5.251-7.135L12 16.103z"></path>
            <path d="M11.999 20.246v-4.144L6.75 13.111l5.249 7.135z"></path>
            <path opacity="0.2" d="M11.999 15.144l5.248-2.993-5.248-2.301v5.294z"></path>
            <path opacity="0.6" d="M6.75 12.151l5.249 2.993V9.85l-5.249 2.3z"></path>
        </symbol>
        <symbol id="exchange" viewBox="0 0 16 16">

            <path d="M43.841,281.457c-18.585-44.869-18.586-94.29,0-139.159c15.615-37.697,42.78-68.384,77.674-88.255v75.005h30V15.053H37.519
		v30h43.755c-73,57.164-102.324,158.139-65.15,247.885c14.167,34.202,37.07,64.159,66.234,86.634
		c28.274,21.789,61.873,36.201,97.162,41.677l4.601-29.646C120.778,381.774,68.338,340.598,43.841,281.457z" />
            <path d="M407.517,292.938c21.651-52.272,21.651-109.848,0-162.12c-14.167-34.202-37.07-64.159-66.234-86.633
		C313.008,22.395,279.409,7.983,244.12,2.507l-4.6,29.646c63.342,9.829,115.782,51.005,140.279,110.146
		c18.585,44.869,18.585,94.29,0,139.159c-15.614,37.697-42.78,68.384-77.673,88.255v-75.005h-30v113.995h113.995v-30h-43.625
		C370.949,356.486,393.327,327.195,407.517,292.938z" />

        </symbol>
    </defs>
</svg> 