<?xml version="1.0" encoding="iso-8859-1"?>
<svg version="1.1" id="Layer_1" xmlns="http://www.w3.org/2000/svg" xmlns:xlink="http://www.w3.org/1999/xlink" x="0px" y="0px" viewBox="0 0 352 352" style="enable-background:new 0 0 352 352;" xml:space="preserve">
	<g transform="translate(26 29.457)">
		<g>
			<path style="fill:#D5913D;" d="M-18,202.543v-176c0-17.6,14.4-32,32-32h228c17.6,0,32,14.4,32,32v28" />
			<path style="fill:#A36211;" d="M-18,210.543c-4.4,0-8-3.6-8-8v-176c0-22,18-40,40-40h228c22,0,40,18,40,40v28c0,4.4-3.6,8-8,8
			s-8-3.6-8-8v-28c0-13.2-10.8-24-24-24H14c-13.2,0-24,10.8-24,24v176C-10,206.943-13.6,210.543-18,210.543z" />
		</g>
		<path style="fill:#C47615;" d="M14,2.543h228c13.2,0,24,10.8,24,24v8c0,13.2-10.8,24-24,24H14c-13.2,0-24-10.8-24-24v-8
		C-10,13.343,0.8,2.543,14,2.543z" />
		<g>
			<path style="fill:#D6913C;" d="M70,58.543h216c17.6,0,32,14.4,32,32v176c0,17.6-14.4,32-32,32H14c-17.6,0-32-14.4-32-32v-172" />
			<path style="fill:#A46210;" d="M286,306.543H14c-22,0-40-18-40-40v-172c0-4.4,3.6-8,8-8s8,3.6,8,8v172c0,13.2,10.8,24,24,24h272
			c13.2,0,24-10.8,24-24v-176c0-13.2-10.8-24-24-24H70c-4.4,0-8-3.6-8-8s3.6-8,8-8h216c22,0,40,18,40,40v176
			C326,288.543,308,306.543,286,306.543z" />
		</g>
		<circle style="fill:#FFE53C;" cx="246" cy="178.543" r="24" />
		<path style="fill:#F8D133;" d="M246,202.543c13.2,0,24-10.8,24-24s-10.8-24-24-24C246,171.743,246,189.743,246,202.543z" />
		<path style="fill:#A37500;" d="M246,210.543c-17.6,0-32-14.4-32-32s14.4-32,32-32s32,14.4,32,32S263.6,210.543,246,210.543z
		 M246,162.543c-8.8,0-16,7.2-16,16s7.2,16,16,16c8.8,0,16-7.2,16-16S254.8,162.543,246,162.543z" />
		<path style="fill:#A36211;" d="M34,66.543H22c-4.4,0-8-3.6-8-8s3.6-8,8-8h12c4.4,0,8,3.6,8,8S38.4,66.543,34,66.543z" />
	</g>
	<g></g>
	<g></g>
	<g></g>
	<g></g>
	<g></g>
	<g></g>
	<g></g>
	<g></g>
	<g></g>
	<g></g>
	<g></g>
	<g></g>
	<g></g>
	<g></g>
	<g></g>
</svg>